<?xml version="1.0" encoding="utf-8"?>
<!-- Generator: Adobe Illustrator 20.1.0, SVG Export Plug-In . SVG Version: 6.00 Build 0)  -->
<svg version="1.1" id="Layer_1" xmlns="http://www.w3.org/2000/svg" xmlns:xlink="http://www.w3.org/1999/xlink" x="0px" y="0px"
	 viewBox="0 0 715 300" style="enable-background:new 0 0 715 300;" xml:space="preserve">
<style type="text/css">
	.st0{fill:#FFFFFF;}
	.st1{fill:#1EC677;}
</style>
<rect class="st0" width="715" height="300"/>
<g>
	<path class="st1" d="M473.5,115.1L473.5,115.1c-10.2,0-22.4,3.6-34.1,16.3c-11.7-12.6-24-16.3-34.1-16.3l0,0c0,0-39-2.9-39,42.7
		v73.8h28.3v-69.6c0-20.4,13.7-20.9,16.4-20.2c0,0,4.9,0.3,9.4,4.9c0,0-9,11.8-9.7,26.6c0,0-2,38.3,28.7,38.3s28.7-38.3,28.7-38.3
		c-0.7-14.8-9.7-26.6-9.7-26.6c4.5-4.7,9.4-4.9,9.4-4.9c2.6-0.6,16.4-0.2,16.4,20.2v69.6h28.3v-73.8
		C512.5,112.1,473.5,115.1,473.5,115.1z M439.3,190.7c-6.1,0-8-7.6-8.1-14.9c-0.2-12.6,8-21.7,8.1-21.9c0.2,0.2,8.3,9.3,8.1,21.9
		C447.5,183.1,445.4,190.7,439.3,190.7z"/>
	<rect x="322.1" y="117" class="st1" width="28.3" height="114.6"/>
	<path class="st1" d="M336.3,67.3c-9.4,0-17.2,7.6-17.2,17c0,9.4,7.7,17.2,17.2,17.2c9.3,0,17-7.7,17-17.2
		C353.3,75.1,345.6,67.3,336.3,67.3z"/>
	<path class="st1" d="M232.6,124.7V66.5h-28v165.1h28V149c46.5-22.6,44.7,13.2,44.7,13.2v69.5h28.1v-69.5
		C305.3,95,246.7,117.2,232.6,124.7z"/>
	<path class="st1" d="M551.4,179.9c15.1,5.3,34.2,4.8,34.2,4.8c45.3-0.3,44-33.2,44-33.2c-1.1-37.1-44.7-36.4-44.7-36.4
		c-36.1,0-61.3,24.7-61.3,60.1s24.7,58.2,63,58.2c16.3,0,31.8-4.5,42.6-12.4v-27.3c-11.3,9.8-24.9,15-39.3,15
		C589.9,208.8,550.6,210.8,551.4,179.9z M554.9,155.8c4.8-12,14.6-18.3,28.6-18.3c11.5,0,18.2,4.8,18.2,12.5
		c0,10.8-12.2,11.8-23.6,11.8c-11.2,0-18.2-1.2-21.3-2l-3-0.7L554.9,155.8z"/>
	<path class="st1" d="M146.5,233.4c19.9,0,34-7.5,42.4-13.8v-27.4c-12.4,9.8-26.9,15.4-39.8,15.4c-20.6,0-35-14.2-35-34.6
		c0-19.4,13.2-32.9,31.9-32.9c6.1,0,11.4,1.6,17,3.1c5.8,1.6,11.9,3.5,19,3.5c2.2,0,4.5-0.2,6.7-0.5V120c-1.9,0.2-3.7,0.3-5.6,0.3
		c-6.5,0-12.4-1.2-18.5-2.5c-6.5-1.4-13.2-2.8-21-2.8c-15.7,0-30.2,5.5-40.8,15.7c-11.3,10.8-17.4,25.9-17.4,43.4
		C85.4,209.1,110.5,233.4,146.5,233.4z"/>
</g>
</svg>
